<svg width="305" height="65" viewBox="0 0 305 65" fill="none" xmlns="http://www.w3.org/2000/svg">
<path d="M104.297 28.4896H99.2899V47.0479C99.2899 47.4356 99.2153 47.8195 99.0704 48.1776C98.9254 48.5358 98.713 48.8612 98.4452 49.1354C98.1775 49.4095 97.8595 49.6269 97.5097 49.7753C97.1598 49.9236 96.7848 50 96.4061 50C96.0296 49.9993 95.6571 49.9221 95.3099 49.773C94.9628 49.6238 94.6481 49.4056 94.3839 49.131C94.1198 48.8565 93.9115 48.531 93.7711 48.1734C93.6307 47.8158 93.561 47.4333 93.5661 47.0479V28.4896H88.5154C87.8339 28.445 87.1945 28.1364 86.7273 27.6266C86.26 27.1167 86 26.4439 86 25.7448C86 25.0457 86.26 24.3729 86.7273 23.863C87.1945 23.3532 87.8339 23.0446 88.5154 23H104.291C105.008 23.0073 105.692 23.3018 106.199 23.8202C106.705 24.3386 106.993 25.0397 107 25.7728C106.997 26.134 106.925 26.4911 106.787 26.8237C106.649 27.1562 106.449 27.4578 106.198 27.7111C105.946 27.9644 105.648 28.1646 105.321 28.3001C104.994 28.4356 104.644 28.5038 104.291 28.5008" fill="#322E2D"/>
<path d="M157.403 28.4985H152.685V47.0492C152.685 47.8289 152.4 48.5769 151.893 49.1298C151.386 49.6827 150.698 49.9956 149.979 50C149.624 49.9993 149.273 49.9222 148.945 49.7731C148.618 49.624 148.321 49.4059 148.072 49.1314C147.822 48.8569 147.626 48.5316 147.493 48.1741C147.361 47.8167 147.295 47.4343 147.3 47.0492V28.4985H142.535C141.863 28.4985 141.218 28.2089 140.742 27.6933C140.267 27.1777 140 26.4784 140 25.7493C140 25.0201 140.267 24.3208 140.742 23.8052C141.218 23.2897 141.863 23 142.535 23H157.419C158.099 23 158.752 23.2911 159.235 23.8101C159.718 24.3291 159.993 25.034 160 25.7717C159.997 26.1349 159.927 26.4938 159.795 26.8277C159.664 27.1617 159.472 27.4641 159.232 27.7175C158.992 27.971 158.709 28.1704 158.397 28.3045C158.086 28.4385 157.754 28.5045 157.419 28.4985" fill="#322E2D"/>
<path d="M126.998 50.0058C124.673 50.0058 122.643 48.5614 122.02 47.2948V55.3779C122.009 56.0773 121.738 56.7442 121.264 57.2348C120.791 57.7253 120.153 58.0001 119.489 58C118.83 57.9971 118.198 57.7199 117.732 57.2288C117.266 56.7376 117.003 56.0724 117 55.3779V32.8397C117.001 32.141 117.263 31.4708 117.728 30.9732C118.194 30.4756 118.826 30.1903 119.489 30.1786C119.811 30.1865 120.129 30.2619 120.423 30.4004C120.717 30.539 120.982 30.738 121.203 30.9858C121.423 31.2335 121.595 31.5251 121.707 31.8434C121.819 32.1617 121.87 32.5004 121.857 32.8397C122.42 31.9513 123.186 31.226 124.084 30.7301C124.982 30.2341 125.984 29.9834 126.998 30.0009C132.098 30.0009 136 34.5007 136 40.0005C136 45.5004 132.098 50.0002 126.998 50.0002V50.0058ZM126.497 34.7229C123.639 34.7229 122.02 37.084 122.02 40.0117C122.02 42.9393 123.639 45.2782 126.497 45.2782C129.356 45.2782 130.98 42.9171 130.98 39.995C130.98 37.0729 129.361 34.7229 126.497 34.7229Z" fill="#322E2D"/>
<path d="M167 50C165.022 50 163.089 49.4135 161.444 48.3147C159.8 47.2159 158.518 45.6541 157.761 43.8268C157.004 41.9996 156.806 39.9889 157.192 38.0491C157.578 36.1093 158.53 34.3275 159.929 32.9289C161.327 31.5304 163.109 30.578 165.049 30.1922C166.989 29.8063 169 30.0043 170.827 30.7612C172.654 31.5181 174.216 32.7998 175.315 34.4443C176.414 36.0888 177 38.0222 177 40C176.991 42.6495 175.935 45.1879 174.061 47.0614C172.188 48.9348 169.649 49.9912 167 50V50ZM167 34.7111C163.978 34.7111 162.278 37.0722 162.278 40C162.278 42.9278 163.978 45.2722 167 45.2722C170.022 45.2722 171.761 42.9111 171.761 39.9889C171.761 37.0667 170.011 34.7167 167 34.7167" fill="#322E2D"/>
<path d="M196.275 41.6986H185.074C185.314 43.9705 187.04 45.5426 189.408 45.5426C190.78 45.5741 192.117 45.0784 193.186 44.1428C193.67 43.6955 194.277 43.4356 194.912 43.404C195.42 43.4158 195.906 43.6337 196.275 44.015C196.509 44.2391 196.698 44.5138 196.83 44.8217C196.962 45.1296 197.034 45.464 197.04 45.8037C197.033 46.063 196.976 46.3179 196.872 46.5515C196.769 46.7851 196.621 46.9922 196.438 47.1591C194.434 49.0448 191.858 50.056 189.209 49.9976C186.772 50.0035 184.433 48.9557 182.706 47.0847C180.979 45.2138 180.005 42.6729 180 40.021C179.995 37.3692 180.958 34.8236 182.677 32.9443C184.396 31.065 186.731 30.0059 189.168 30C194.227 30 198 34.1939 198 39.9988C197.991 40.2343 197.939 40.4654 197.847 40.6788C197.755 40.8922 197.625 41.0835 197.464 41.2417C197.304 41.3999 197.116 41.5217 196.912 41.6002C196.707 41.6786 196.491 41.7121 196.275 41.6986ZM189.168 34.4772C188.217 34.4283 187.282 34.7619 186.543 35.4144C185.803 36.0669 185.309 36.9928 185.156 38.0157H193.227C193.047 36.9976 192.539 36.0825 191.796 35.4342C191.052 34.7859 190.121 34.4467 189.168 34.4772Z" fill="#322E2D"/>
<path d="M216.756 33.3771L210.261 48.119C208.345 52.4674 205.281 55.9784 200.935 57.826C200.668 57.9491 200.377 58.0083 200.085 57.9991C199.589 57.9801 199.115 57.7861 198.741 57.4495C198.367 57.1129 198.117 56.6542 198.032 56.1502C197.947 55.6461 198.033 55.1272 198.274 54.6803C198.516 54.2335 198.899 53.8858 199.359 53.6954C202.028 52.3448 204.175 50.1018 205.449 47.332C204.583 45.4006 199.083 33.5948 199.083 32.3668C199.083 32.0553 199.142 31.7467 199.257 31.4589C199.373 31.171 199.542 30.9096 199.756 30.6896C199.97 30.4696 200.224 30.2954 200.503 30.1771C200.782 30.0587 201.082 29.9986 201.384 30C201.829 30.0072 202.264 30.142 202.64 30.3894C203.016 30.6368 203.317 30.9871 203.511 31.4011L208.069 41.6272L212.615 31.4011C212.808 30.9867 213.11 30.6361 213.486 30.3886C213.861 30.1411 214.297 30.0065 214.742 30C215.042 29.9992 215.339 30.0602 215.616 30.1793C215.893 30.2985 216.143 30.4734 216.354 30.6939C216.564 30.9143 216.729 31.1759 216.84 31.4631C216.951 31.7504 217.005 32.0576 217 32.3668C216.995 32.7152 216.921 33.059 216.783 33.3771" fill="#322E2D"/>
<path d="M247 50C245.022 50 243.089 49.4135 241.444 48.3147C239.8 47.2159 238.518 45.6541 237.761 43.8268C237.004 41.9996 236.806 39.9889 237.192 38.0491C237.578 36.1093 238.53 34.3275 239.929 32.9289C241.327 31.5304 243.109 30.578 245.049 30.1922C246.989 29.8063 249 30.0043 250.827 30.7612C252.654 31.5181 254.216 32.7998 255.315 34.4443C256.414 36.0888 257 38.0222 257 40C256.991 42.6495 255.935 45.1879 254.061 47.0614C252.188 48.9348 249.649 49.9912 247 50V50ZM247 34.7111C243.978 34.7111 242.278 37.0722 242.278 40C242.278 42.9278 243.978 45.2722 247 45.2722C250.022 45.2722 251.761 42.9111 251.761 39.9889C251.761 37.0667 250.011 34.7167 247 34.7167" fill="#322E2D"/>
<path d="M277.071 41.6764H264.627C264.893 43.9484 266.811 45.5204 269.442 45.5204C270.962 45.5577 272.447 45.0678 273.634 44.1373C274.173 43.6911 274.847 43.4314 275.551 43.3985C276.118 43.409 276.661 43.627 277.071 44.0095C277.333 44.2342 277.545 44.5096 277.692 44.8185C277.84 45.1274 277.92 45.4629 277.928 45.8037C277.922 46.0634 277.859 46.3187 277.743 46.5526C277.628 46.7864 277.463 46.9932 277.259 47.1592C275.033 49.0436 272.174 50.0547 269.233 49.9977C266.525 50.0036 263.925 48.9558 262.006 47.0848C260.087 45.2138 259.006 42.6729 259 40.0211C258.994 37.3692 260.064 34.8236 261.974 32.9443C263.885 31.065 266.479 30.0059 269.187 30C274.808 30 279 34.194 279 39.9989C278.99 40.2343 278.932 40.4655 278.83 40.6789C278.728 40.8922 278.583 41.0836 278.405 41.2418C278.226 41.3999 278.018 41.5218 277.791 41.6002C277.564 41.6787 277.323 41.7121 277.083 41.6987L277.071 41.6764ZM269.187 34.4773C268.13 34.4294 267.091 34.7632 266.268 35.4154C265.446 36.0677 264.896 36.9929 264.723 38.0158H273.691C273.492 36.9981 272.929 36.0831 272.104 35.4347C271.279 34.7863 270.245 34.4469 269.187 34.4773" fill="#322E2D"/>
<path d="M296.766 33.3771L289.921 48.119C287.901 52.4674 284.667 55.9784 280.093 57.826C279.811 57.9491 279.505 58.0083 279.197 57.9991C278.675 57.9801 278.175 57.7861 277.781 57.4495C277.387 57.1129 277.123 56.6542 277.034 56.1502C276.944 55.6461 277.034 55.1272 277.289 54.6803C277.544 54.2335 277.947 53.8858 278.433 53.6954C281.245 52.3448 283.507 50.1018 284.85 47.332C283.954 45.4006 278.165 33.5948 278.165 32.3668C278.164 32.0553 278.226 31.7467 278.348 31.4589C278.469 31.171 278.648 30.9096 278.873 30.6896C279.099 30.4696 279.366 30.2954 279.661 30.1771C279.955 30.0587 280.271 29.9986 280.589 30C281.058 30.0072 281.517 30.142 281.913 30.3894C282.309 30.6368 282.626 30.9871 282.831 31.4011L287.628 41.6272L292.345 31.4011C292.553 30.9816 292.877 30.6277 293.28 30.38C293.684 30.1322 294.15 30.0005 294.627 30C294.942 30 295.254 30.0615 295.545 30.181C295.836 30.3004 296.1 30.4755 296.321 30.6959C296.542 30.9162 296.716 31.1775 296.832 31.4644C296.949 31.7513 297.006 32.0581 297 32.3668C296.996 32.7148 296.921 33.0586 296.777 33.3771" fill="#322E2D"/>
<path d="M111.482 50C110.824 49.997 110.195 49.715 109.73 49.2152C109.265 48.7155 109.003 48.0386 109 47.3318V32.7077C109.001 31.9969 109.262 31.3149 109.726 30.8085C110.19 30.3022 110.821 30.0118 111.482 30C112.147 30.0102 112.782 30.2988 113.252 30.8044C113.722 31.31 113.99 31.9928 114 32.7077V47.3318C113.989 48.0426 113.719 48.7204 113.248 49.2193C112.777 49.7183 112.143 49.9986 111.482 50" fill="#322E2D"/>
<path d="M111.483 28.9998C111.157 29.0044 110.832 28.9305 110.53 28.7825C110.227 28.6344 109.952 28.4152 109.721 28.1377C109.489 27.8601 109.306 27.5298 109.183 27.1662C109.059 26.8025 108.997 26.4129 109 26.02C108.996 25.625 109.058 25.2331 109.181 24.8669C109.304 24.5007 109.486 24.1675 109.717 23.8866C109.948 23.6057 110.223 23.3827 110.526 23.2305C110.83 23.0783 111.155 23 111.483 23C112.148 23 112.786 23.3164 113.258 23.8801C113.729 24.4438 113.996 25.209 114 26.0085C113.999 26.4035 113.934 26.7944 113.806 27.1586C113.679 27.5228 113.493 27.8531 113.259 28.1302C113.025 28.4074 112.748 28.6259 112.443 28.7732C112.138 28.9205 111.812 28.9936 111.483 28.9883" fill="#322E2D"/>
<path d="M302 29C301.204 29 300.441 28.6839 299.879 28.1213C299.316 27.5587 299 26.7956 299 26C299 25.2044 299.316 24.4413 299.879 23.8787C300.441 23.3161 301.204 23 302 23C302.796 23 303.559 23.3161 304.121 23.8787C304.684 24.4413 305 25.2044 305 26C305 26.7956 304.684 27.5587 304.121 28.1213C303.559 28.6839 302.796 29 302 29ZM302 23.3643C301.478 23.3602 300.966 23.5115 300.53 23.7989C300.093 24.0863 299.752 24.4969 299.55 24.9784C299.348 25.46 299.293 25.9908 299.393 26.5036C299.492 27.0163 299.742 27.4878 300.111 27.8583C300.479 28.2287 300.949 28.4814 301.461 28.5842C301.973 28.6869 302.504 28.6352 302.987 28.4355C303.47 28.2359 303.882 27.8973 304.172 27.4627C304.462 27.0282 304.616 26.5173 304.616 25.9949C304.617 25.2995 304.342 24.6318 303.852 24.1386C303.362 23.6454 302.695 23.3669 302 23.3643ZM302.673 26.1771L303.083 27.0017C303.104 27.0426 303.118 27.0872 303.123 27.1332C303.124 27.177 303.113 27.2201 303.092 27.2584C303.07 27.2966 303.039 27.3284 303.002 27.3508C302.974 27.3622 302.945 27.368 302.916 27.368C302.886 27.368 302.857 27.3622 302.83 27.3508C302.798 27.3441 302.768 27.3307 302.742 27.3115C302.716 27.2923 302.694 27.2678 302.678 27.2395C302.374 26.6223 302.202 26.2277 302.202 26.2277H301.449V27.0978C301.446 27.1623 301.419 27.2233 301.373 27.2684C301.327 27.3136 301.265 27.3394 301.201 27.3406C301.138 27.338 301.079 27.3113 301.035 27.266C300.992 27.2208 300.968 27.1605 300.968 27.0978V24.9376C300.968 24.8754 300.992 24.8157 301.036 24.7712C301.079 24.7268 301.138 24.7012 301.201 24.6998H302.212C302.784 24.6998 303.123 24.9983 303.123 25.484C303.13 25.6335 303.089 25.7813 303.006 25.9059C302.924 26.0306 302.803 26.1256 302.663 26.1771H302.673ZM302.268 25.1653H301.438V25.8583H302.268C302.316 25.8642 302.364 25.8597 302.41 25.8452C302.455 25.8307 302.497 25.8066 302.533 25.7744C302.568 25.7423 302.596 25.7029 302.615 25.6589C302.634 25.6149 302.644 25.5673 302.643 25.5194C302.644 25.4707 302.635 25.4222 302.617 25.3772C302.598 25.3321 302.57 25.2915 302.535 25.258C302.5 25.2245 302.458 25.1989 302.412 25.183C302.366 25.167 302.317 25.1609 302.268 25.1653Z" fill="#322E2D"/>
<path d="M223.393 44.7247C227.058 44.7247 228.69 42.0563 228.69 38.2461V26.0465C228.674 25.6528 228.731 25.2597 228.858 24.8909C228.984 24.5221 229.177 24.1852 229.425 23.9005C229.673 23.6159 229.971 23.3893 230.3 23.2346C230.63 23.0798 230.985 23 231.344 23C231.702 23 232.057 23.0798 232.387 23.2346C232.717 23.3893 233.015 23.6159 233.263 23.9005C233.511 24.1852 233.703 24.5221 233.83 24.8909C233.956 25.2597 234.013 25.6528 233.997 26.0465V37.7447C233.997 44.8416 230.089 50 223.393 50C222.754 49.9883 222.146 49.7014 221.698 49.2013C221.251 48.7011 221 48.0276 221 47.3261C221.009 46.635 221.265 45.9757 221.713 45.4901C222.16 45.0045 222.764 44.7316 223.393 44.7302" fill="#322E2D"/>
<path d="M32.5 0C26.0719 1.15071e-07 19.7881 1.90625 14.4433 5.47766C9.09861 9.04908 4.93301 14.1252 2.47334 20.0642C0.0136742 26.0032 -0.629575 32.5381 0.624943 38.8427C1.87946 45.1472 4.9754 50.9382 9.52122 55.4831C14.067 60.0281 19.8586 63.1229 26.1633 64.3763C32.4681 65.6296 39.003 64.9851 44.9415 62.5243C50.88 60.0635 55.9553 55.897 59.5258 50.5515C63.0962 45.2061 65.0012 38.922 65 32.4938C64.9984 23.8754 61.5736 15.6105 55.4788 9.51685C49.384 3.42325 41.1185 -1.5428e-07 32.5 0V0ZM34.9598 20.6561C35.0626 20.6585 35.1624 20.6912 35.2468 20.7501C35.3311 20.809 35.3962 20.8914 35.4339 20.9871C35.4715 21.0828 35.4802 21.1875 35.4586 21.2881C35.4371 21.3887 35.3864 21.4807 35.3128 21.5525C35.2392 21.6244 35.1461 21.673 35.045 21.6922C34.944 21.7114 34.8395 21.7003 34.7447 21.6604C34.6499 21.6205 34.569 21.5536 34.5121 21.4679C34.4552 21.3822 34.4248 21.2817 34.4248 21.1788C34.4256 21.1093 34.4401 21.0407 34.4674 20.9769C34.4947 20.913 34.5343 20.8552 34.584 20.8066C34.6337 20.7581 34.6925 20.7198 34.7569 20.694C34.8214 20.6682 34.8903 20.6553 34.9598 20.6561V20.6561ZM14.8756 50.8931C14.6067 50.8834 14.3465 50.7949 14.1276 50.6384C13.9086 50.482 13.7406 50.2646 13.6443 50.0133C13.548 49.7621 13.5277 49.488 13.5861 49.2253C13.6444 48.9626 13.7788 48.7229 13.9724 48.536C14.166 48.3491 14.4103 48.2233 14.6748 48.1743C14.9394 48.1252 15.2126 48.1551 15.4603 48.2602C15.708 48.3653 15.9194 48.5409 16.068 48.7652C16.2166 48.9896 16.296 49.2527 16.2961 49.5217C16.2929 49.7051 16.2536 49.886 16.1805 50.0541C16.1074 50.2222 16.0019 50.3743 15.8699 50.5017C15.738 50.629 15.5823 50.7291 15.4117 50.7963C15.2411 50.8634 15.0589 50.8963 14.8756 50.8931ZM52.8363 48.9068C35.4272 43.9011 17.0341 50.2658 17.0341 50.2658C14.4574 34.8368 25.6433 14.5128 25.6433 14.5128L21.6708 10.2819C21.6708 10.2819 23.983 11.3212 26.658 12.8524C30.1817 14.8817 33.7484 17.0279 34.3572 20.2933C34.5355 21.2649 31.3562 21.1358 28.6627 19.0634C28.6627 19.0634 22.9314 31.7682 29.4253 46.7729C29.4253 46.7729 46.2318 44.676 49.7185 45.1003C53.2053 45.5246 52.8548 48.9006 52.8548 48.9006L52.8363 48.9068ZM32.5923 36.8169C32.6156 37.3077 32.4914 37.7943 32.2357 38.2139C31.98 38.6334 31.6045 38.9668 31.1576 39.171C30.7107 39.3753 30.2128 39.4409 29.7282 39.3596C29.2436 39.2783 28.7945 39.0538 28.4387 38.7149C28.0829 38.376 27.8368 37.9383 27.732 37.4583C27.6272 36.9782 27.6686 36.4778 27.8509 36.0214C28.0331 35.5651 28.3479 35.1738 28.7545 34.898C29.1612 34.6222 29.6411 34.4745 30.1325 34.474C30.4481 34.465 30.7625 34.5186 31.0574 34.6317C31.3522 34.7448 31.6218 34.9152 31.8505 35.133C32.0791 35.3508 32.2624 35.6118 32.3897 35.9008C32.5171 36.1898 32.5859 36.5012 32.5923 36.8169" fill="#322E2D"/>
</svg>
